<?xml version="1.0" encoding="UTF-8" standalone="no"?>
<!-- Created with Inkscape (http://www.inkscape.org/) -->

<svg
   width="300"
   height="160"
   viewBox="0 0 300 160"
   id="svg4178"
   version="1.1"
   inkscape:version="1.2 (dc2aedaf03, 2022-05-15)"
   sodipodi:docname="SMALLER_LOGO3.svg"
   xmlns:inkscape="http://www.inkscape.org/namespaces/inkscape"
   xmlns:sodipodi="http://sodipodi.sourceforge.net/DTD/sodipodi-0.dtd"
   xmlns="http://www.w3.org/2000/svg"
   xmlns:svg="http://www.w3.org/2000/svg"
   xmlns:rdf="http://www.w3.org/1999/02/22-rdf-syntax-ns#"
   xmlns:cc="http://creativecommons.org/ns#"
   xmlns:dc="http://purl.org/dc/elements/1.1/">
  <defs
     id="defs4180" />
  <sodipodi:namedview
     id="base"
     pagecolor="#00ffff"
     bordercolor="#666666"
     borderopacity="1.0"
     inkscape:pageopacity="0"
     inkscape:pageshadow="2"
     inkscape:zoom="2.8284271"
     inkscape:cx="77.251417"
     inkscape:cy="57.452426"
     inkscape:document-units="px"
     inkscape:current-layer="layer1"
     showgrid="false"
     inkscape:snap-grids="false"
     inkscape:snap-page="false"
     showguides="true"
     inkscape:guide-bbox="true"
     units="px"
     inkscape:showpageshadow="true"
     inkscape:snap-to-guides="true"
     borderlayer="false"
     showborder="true"
     inkscape:pagecheckerboard="0"
     inkscape:deskcolor="#00ffff"
     inkscape:window-width="1500"
     inkscape:window-height="930"
     inkscape:window-x="485"
     inkscape:window-y="1081"
     inkscape:window-maximized="1">
    <sodipodi:guide
       position="-226.83957,691.93202"
       orientation="0,1"
       id="guide4734"
       inkscape:locked="false" />
    <sodipodi:guide
       position="546.41229,422.29253"
       orientation="0,1"
       id="guide4736"
       inkscape:locked="false" />
    <sodipodi:guide
       position="-5.0440187,6.8094253"
       orientation="1,0"
       id="guide3439"
       inkscape:locked="false" />
    <sodipodi:guide
       position="25.093993,-6.6202746"
       orientation="1,0"
       id="guide3441"
       inkscape:locked="false" />
    <sodipodi:guide
       position="153.79573,102.72435"
       orientation="0,1"
       id="guide4258"
       inkscape:locked="false" />
    <sodipodi:guide
       position="-47,60"
       orientation="0,1"
       id="guide4260"
       inkscape:locked="false" />
    <sodipodi:guide
       position="53.386562,115.29228"
       orientation="1,0"
       id="guide4262"
       inkscape:locked="false" />
    <sodipodi:guide
       position="247.48737,135.7645"
       orientation="1,0"
       id="guide4264"
       inkscape:locked="false" />
    <sodipodi:guide
       position="60.811183,105.71246"
       orientation="1,0"
       id="guide4266"
       inkscape:locked="false" />
    <sodipodi:guide
       position="247.48737,12.020815"
       orientation="1,0"
       id="guide4268"
       inkscape:locked="false" />
    <sodipodi:guide
       position="77.074639,165.81654"
       orientation="0,1"
       id="guide4270"
       inkscape:locked="false" />
    <sodipodi:guide
       position="146.54788,140.89103"
       orientation="1,0"
       id="guide4272"
       inkscape:locked="false" />
    <sodipodi:guide
       position="146.54788,79.549513"
       orientation="0,1"
       id="guide4274"
       inkscape:locked="false" />
  </sodipodi:namedview>
  <metadata
     id="metadata4183">
    <rdf:RDF>
      <cc:Work
         rdf:about="">
        <dc:format>image/svg+xml</dc:format>
        <dc:type
           rdf:resource="http://purl.org/dc/dcmitype/StillImage" />
      </cc:Work>
    </rdf:RDF>
  </metadata>
  <g
     inkscape:label="Layer 1"
     inkscape:groupmode="layer"
     id="layer1"
     transform="translate(0,-892.3622)">
    <text
       xml:space="preserve"
       style="font-style:normal;font-variant:normal;font-weight:bold;font-stretch:normal;line-height:0%;font-family:'Century Gothic';-inkscape-font-specification:'Century Gothic Bold';text-align:center;letter-spacing:3.14238px;word-spacing:0px;writing-mode:lr-tb;text-anchor:middle;fill:#ffffff;fill-opacity:1;stroke:none;stroke-width:1px;stroke-linecap:butt;stroke-linejoin:miter;stroke-opacity:1"
       x="143.75343"
       y="981.95886"
       id="text4738"><tspan
         sodipodi:role="line"
         id="tspan4740"
         x="145.32463"
         y="981.95886"
         style="font-style:normal;font-variant:normal;font-weight:bold;font-stretch:normal;font-size:23.6486px;line-height:125%;font-family:sans-serif;-inkscape-font-specification:'sans-serif, Bold';text-align:center;writing-mode:lr-tb;text-anchor:middle;fill:#ffffff;fill-opacity:1">CALEB HAMILTON</tspan></text>
    <text
       xml:space="preserve"
       style="font-style:normal;font-variant:normal;font-weight:bold;font-stretch:normal;line-height:0%;font-family:'Century Gothic';-inkscape-font-specification:'Century Gothic Bold';text-align:center;letter-spacing:1.61418px;word-spacing:0px;writing-mode:lr-tb;text-anchor:middle;fill:#ffffff;fill-opacity:1;stroke:none;stroke-width:1px;stroke-linecap:butt;stroke-linejoin:miter;stroke-opacity:1"
       x="145.19109"
       y="1015.1082"
       id="text4742"><tspan
         sodipodi:role="line"
         id="tspan4744"
         x="145.99818"
         y="1015.1082"
         style="font-style:normal;font-variant:normal;font-weight:bold;font-stretch:normal;font-size:15.593px;line-height:125%;font-family:sans-serif;-inkscape-font-specification:'sans-serif, Bold';text-align:center;writing-mode:lr-tb;text-anchor:middle">TORONTO</tspan></text>
    <path
       style="color:#000000;font-style:normal;font-variant:normal;font-weight:normal;font-stretch:normal;font-size:medium;line-height:normal;font-family:sans-serif;text-indent:0;text-align:start;text-decoration:none;text-decoration-line:none;text-decoration-style:solid;text-decoration-color:#000000;letter-spacing:normal;word-spacing:normal;text-transform:none;direction:ltr;block-progression:tb;writing-mode:lr-tb;baseline-shift:baseline;text-anchor:start;white-space:normal;clip-rule:nonzero;display:inline;overflow:visible;visibility:visible;opacity:1;isolation:auto;mix-blend-mode:normal;color-interpolation:sRGB;color-interpolation-filters:linearRGB;solid-color:#000000;solid-opacity:1;fill:#ffffff;fill-opacity:1;fill-rule:evenodd;stroke:none;stroke-width:6;stroke-linecap:round;stroke-linejoin:bevel;stroke-miterlimit:4;stroke-dasharray:none;stroke-dashoffset:0;stroke-opacity:1;color-rendering:auto;image-rendering:auto;shape-rendering:auto;text-rendering:auto;enable-background:accumulate"
       d="m 146.35906,896.99749 c -2.64993,0 -5.27159,0.12134 -7.85758,0.36408 -2.58253,0.23897 -5.12615,0.59619 -7.62341,1.059 l -0.003,0.002 c -2.49915,0.46601 -4.95731,1.039 -7.36799,1.72486 -2.40609,0.68111 -4.76042,1.46734 -7.05782,2.35197 -2.29886,0.88517 -4.5412,1.86904 -6.71877,2.94582 l 0,0.002 c -2.17754,1.07748 -4.29184,2.24662 -6.33562,3.50371 -2.04381,1.25708 -4.016968,2.60218 -5.914479,4.02836 l 0,-0.002 c -1.897225,1.42528 -3.718663,2.9326 -5.456806,4.51564 -1.737916,1.58212 -3.392294,3.23925 -4.958114,4.96694 -1.565614,1.72744 -3.042016,3.52378 -4.422925,5.38501 -1.381075,1.86074 -2.665309,3.78608 -3.848201,5.76844 -1.18312,1.98275 -2.264769,4.0248 -3.23699,6.11731 -0.972368,2.09283 -1.836189,4.23766 -2.584727,6.42878 -0.74858,2.19124 -2.645441,8.99062 -2.467928,8.99108 l 4.795836,0.0126 c 0.480607,-2.1382 1.430323,-5.68429 2.133026,-7.74124 0.702741,-2.05706 1.512338,-4.07113 2.425082,-6.03563 0.912891,-1.96482 1.928483,-3.88053 3.039335,-5.74215 1.111074,-1.86201 2.317276,-3.67105 3.614057,-5.41823 l 0.0015,0 c 1.296958,-1.74807 2.682635,-3.43643 4.153809,-5.05968 1.470963,-1.62302 3.027283,-3.18008 4.660112,-4.66654 1.632597,-1.48693 3.342857,-2.90246 5.125371,-4.24155 1.78221,-1.33954 3.63719,-2.60243 5.55716,-3.78335 1.91958,-1.18071 3.90455,-2.28001 5.94943,-3.29191 2.04526,-1.01134 4.15021,-1.93629 6.30825,-2.76725 2.15847,-0.83113 4.37025,-1.56867 6.62906,-2.20799 l 0.003,-0.002 c 2.25489,-0.64155 4.55982,-1.17992 6.91035,-1.61827 2.35144,-0.43579 4.74206,-0.77104 7.1673,-0.99533 l 0.003,0 c 2.42336,-0.22746 4.88502,-0.34192 7.37863,-0.34192 2.47983,0 4.92946,0.13322 7.34367,0.39314 2.41421,0.25993 4.79493,0.64655 7.13535,1.15037 l 0.003,0.002 c 2.33681,0.49971 4.63653,1.12238 6.89363,1.85084 2.25492,0.72778 4.46511,1.56402 6.62296,2.4987 2.15748,0.93449 4.26357,1.96793 6.3113,3.09118 2.04773,1.12323 4.0357,2.33523 5.96008,3.6283 1.92471,1.29329 3.78557,2.66717 5.57389,4.11143 1.78829,1.44356 3.50575,2.95784 5.14512,4.53364 1.63959,1.57669 3.19992,3.21377 4.67684,4.90187 1.47711,1.68833 2.87018,3.42689 4.17205,5.20781 l 0,0.002 c 1.30185,1.78022 2.51346,3.6023 3.62775,5.4556 1.1143,1.85332 2.13122,3.73654 3.0454,5.64248 l 0,0.002 c 0.9142,1.90525 1.72583,3.83181 2.42815,5.76986 0.70221,1.93721 1.22178,3.61836 1.70068,5.56815 l 4.77305,0.005 c -0.51358,-2.09093 -1.28966,-4.83948 -2.03866,-6.90568 -0.74895,-2.06676 -1.61227,-4.11596 -2.58321,-6.13945 -0.97091,-2.02418 -2.04822,-4.02101 -3.22786,-5.98302 -1.17967,-1.96204 -2.46156,-3.88961 -3.83756,-5.77122 -1.37599,-1.88232 -2.84654,-3.71861 -4.4062,-5.50129 -1.55986,-1.78291 -3.20872,-3.51124 -4.93987,-5.17598 -1.7314,-1.66425 -3.54561,-3.26567 -5.43705,-4.7925 l 0,0.002 c -1.89142,-1.52752 -3.85869,-2.98079 -5.89774,-4.35092 -2.03935,-1.37032 -4.14991,-2.65672 -6.32498,-3.84979 -2.17508,-1.19309 -4.4163,-2.29315 -6.71573,-3.28914 -2.29904,-0.99582 -4.65587,-1.88942 -7.06694,-2.66759 -2.40745,-0.77699 -4.87144,-1.44367 -7.3832,-1.98095 l -0.005,-0.002 c -2.50826,-0.53979 -5.06331,-0.95421 -7.65688,-1.23344 -2.59516,-0.2794 -5.22879,-0.4236 -7.89253,-0.4236 z m 70.71356,92.04504 c -0.47895,1.94985 -1.07202,3.8983 -1.77434,5.83629 -0.70223,1.93789 -1.51375,3.86356 -2.42812,5.76988 -0.91434,1.9056 -1.93122,3.7907 -3.0454,5.6439 -1.11438,1.8528 -2.32572,3.6744 -3.62775,5.4556 -1.30203,1.7803 -2.69496,3.5194 -4.17206,5.2078 -1.4771,1.6883 -3.03766,3.3261 -4.67684,4.9018 -1.63932,1.5758 -3.35652,3.0905 -5.14512,4.535 -1.78834,1.4444 -3.6492,2.8182 -5.5739,4.1115 -1.92436,1.2923 -3.9132,2.5055 -5.96006,3.6284 -2.04782,1.1231 -4.15382,2.1565 -6.3113,3.0911 -2.15739,0.9345 -4.36703,1.7698 -6.62297,2.4985 -2.25536,0.728 -4.55622,1.3479 -6.89666,1.851 -2.34345,0.501 -4.72342,0.8913 -7.13537,1.1517 l 0,0 c -2.41429,0.2599 -4.86387,0.3946 -7.34367,0.3946 -2.49361,0 -4.95524,-0.1144 -7.37863,-0.342 -2.43268,-0.2282 -4.82251,-0.5563 -7.16577,-0.9952 l -0.005,0 c -2.34437,-0.4346 -4.65027,-0.9774 -6.91034,-1.617 l -0.003,0 c -2.2615,-0.6435 -4.47271,-1.3783 -6.62754,-2.208 l -0.002,0 c -2.15816,-0.8318 -4.2627,-1.7546 -6.30674,-2.7659 l -0.002,0 c -2.04488,-1.0113 -4.02945,-2.1097 -5.94943,-3.2906 -1.91962,-1.1807 -3.77442,-2.444 -5.55716,-3.7833 -1.782232,-1.3389 -3.492334,-2.7549 -5.125367,-4.2416 -1.632284,-1.4859 -3.188928,-3.0441 -4.660113,-4.6665 l 0,0 c -1.470889,-1.6229 -2.857074,-3.3105 -4.153806,-5.0582 -1.297113,-1.7483 -2.504633,-3.5564 -3.615577,-5.4183 -1.110875,-1.8623 -2.126658,-3.7778 -3.039335,-5.7421 l 0,0 c -0.912497,-1.9648 -1.722618,-3.97822 -2.425081,-6.03436 l 0,0 c -0.702616,-2.05744 -1.685456,-5.77069 -2.16594,-7.90899 l -4.834511,-7.1e-4 c 0.511905,2.27813 1.791027,6.98214 2.539515,9.17366 0.748581,2.1912 1.612524,4.3356 2.584726,6.4288 0.972297,2.0927 2.052591,4.1329 3.235469,6.1159 l 0.0015,0 c 1.183021,1.9827 2.467457,3.9062 3.848201,5.7671 1.380906,1.8613 2.857317,3.659 4.422923,5.3865 1.56539,1.7263 3.219918,3.3845 4.958116,4.9668 1.737709,1.5821 3.559307,3.0903 5.456819,4.5158 1.896984,1.4252 3.870319,2.7696 5.914469,4.027 2.04378,1.2571 4.15768,2.4267 6.33562,3.5036 2.17819,1.0778 4.41918,2.0618 6.71724,2.9472 l 0.002,0 c 2.30048,0.8858 4.65505,1.6684 7.05782,2.352 l 0.003,0 c 2.40494,0.6808 4.86326,1.2594 7.36798,1.7235 2.50552,0.4691 5.04828,0.8187 7.62343,1.0605 2.58595,0.2427 5.2076,0.364 7.85756,0.364 2.66379,0 5.29746,-0.1443 7.89254,-0.4236 2.59643,-0.2803 5.15109,-0.6976 7.65687,-1.2334 l 0.003,0 c 2.50973,-0.5394 4.97402,-1.2043 7.38472,-1.9824 2.41006,-0.7786 4.76744,-1.6702 7.06695,-2.6662 2.29943,-0.996 4.54071,-2.0962 6.71573,-3.2891 2.17532,-1.1933 4.28461,-2.479 6.32346,-3.8483 l 0.002,0 c 2.03906,-1.3702 4.00635,-2.8235 5.89773,-4.351 1.89113,-1.5273 3.70562,-3.1282 5.43704,-4.7925 1.73158,-1.6645 3.38019,-3.3933 4.93987,-5.176 1.5597,-1.7826 3.03035,-3.6185 4.40619,-5.4999 1.37585,-1.882 2.65648,-3.8086 3.83605,-5.7699 l 0.002,0 c 1.17977,-1.9621 2.25711,-3.9598 3.22788,-5.983 0.97074,-2.0238 1.8342,-4.07395 2.58319,-6.14083 0.74899,-2.06679 1.54202,-5.07432 2.05561,-7.16521 z"
       id="path4752"
       inkscape:connector-curvature="0"
       sodipodi:nodetypes="cccccsccscccscsssscsssccsccscscccccssccssssccsccscccccccscscccssssccscccscccscscccccccsccccccccccccccscccccccccccccccscccccccsccccccccscsccccscc" />
    <text
       xml:space="preserve"
       style="font-style:normal;font-variant:normal;font-weight:bold;font-stretch:normal;line-height:0%;font-family:'Century Gothic';-inkscape-font-specification:'Century Gothic Bold';text-align:center;letter-spacing:1.61418px;word-spacing:0px;writing-mode:lr-tb;text-anchor:middle;fill:#ffffff;fill-opacity:1;stroke:none;stroke-width:1px;stroke-linecap:butt;stroke-linejoin:miter;stroke-opacity:1"
       x="147.84933"
       y="943.54504"
       id="text4742-7"><tspan
         sodipodi:role="line"
         x="148.65642"
         y="943.54504"
         style="font-style:normal;font-variant:normal;font-weight:bold;font-stretch:normal;font-size:15.593px;line-height:125%;font-family:sans-serif;-inkscape-font-specification:'sans-serif, Bold';text-align:center;writing-mode:lr-tb;text-anchor:middle"
         id="tspan705">I AM</tspan></text>
  </g>
</svg>
